<svg width="135" height="56" viewBox="0 0 135 56" fill="none" xmlns="http://www.w3.org/2000/svg">
<path d="M25.2363 0.135811C9.96483 1.79357 -1.28784 15.2315 0.118741 30.1011C1.09833 40.349 7.65401 49.0648 17.4499 53.1087C24.7088 56.0977 33.4497 55.8968 40.4827 52.6064C54.5987 46.0005 60.6521 29.7243 54.1215 16.0101C50.379 8.1232 42.7935 2.2708 34.0275 0.537692C31.4655 0.0102232 27.8234 -0.140482 25.2363 0.135811ZM33.1986 2.99921C41.7385 4.63185 48.8468 10.2331 52.1372 17.9693C54.5485 23.6458 54.7243 30.2518 52.6144 36.0288C47.3398 50.5468 29.8579 56.9769 15.9177 49.5421C9.6383 46.2014 4.99155 40.1732 3.2082 33.1152C2.55514 30.4778 2.6305 24.2487 3.33379 21.6113C5.94602 12.0918 13.2803 5.18444 22.9757 3.1248C25.6884 2.5471 30.4859 2.47174 33.1986 2.99921Z" fill="#E1E0E3"/>
<path d="M24.2567 4.90814C23.5283 5.03373 21.8705 5.48584 20.6146 5.91284C6.19716 10.7354 0.194062 27.8405 8.58333 40.1983C11.6979 44.7697 16.2442 48.035 21.8705 49.743C23.9302 50.3961 24.4325 50.4463 28.376 50.4463C32.2943 50.4463 32.8218 50.3709 34.9065 49.743C43.4967 47.1559 49.6003 40.776 51.5092 32.3616C52.1623 29.5485 52.1121 25.2785 51.4088 22.39C49.4245 14.277 43.2707 7.97248 34.9065 5.51096C33.0478 4.95838 32.0431 4.80767 29.1295 4.75744C27.1954 4.7072 25.0102 4.75744 24.2567 4.90814ZM32.1436 7.52037C39.3272 8.77625 45.255 13.5737 47.9426 20.3052C49.0728 23.0933 49.4245 25.2283 49.2738 28.4935C49.0477 33.8185 47.2141 37.9629 43.346 41.831C39.503 45.674 35.0321 47.6582 29.5063 48.0099C19.7858 48.5876 11.0951 42.5091 8.10609 33.0147C7.60374 31.4072 7.52839 30.6285 7.52839 27.4888C7.55351 24.0477 7.57863 23.7212 8.35727 21.4606C9.41221 18.4214 10.7937 16.0855 12.8533 13.9002C14.8376 11.8155 16.2693 10.7354 18.6052 9.55489C23.0259 7.34454 27.3713 6.69149 32.1436 7.52037Z" fill="#E1E0E3"/>
<path d="M25.6131 9.37912C21.3431 10.0573 18.1281 11.7151 15.0637 14.8045C12.6022 17.266 11.4468 18.9991 10.5426 21.6365C9.23644 25.3539 9.16108 28.9457 10.2663 32.7385C11.1203 35.7274 12.4515 37.8624 15.0386 40.4244C16.9475 42.3334 17.7011 42.8859 19.7105 43.8655C23.0511 45.5233 24.734 45.9001 28.376 45.9252C33.927 45.9252 37.8202 44.2925 41.839 40.2988C43.7982 38.3397 44.401 37.5359 45.255 35.7777C46.737 32.7385 47.1891 30.9049 47.1891 27.6145C47.1891 24.299 46.7621 22.4654 45.2801 19.4513C44.4261 17.693 43.8233 16.8893 41.839 14.905C39.7794 12.8705 39.0761 12.343 37.0416 11.3383C35.7355 10.7104 33.9521 10.0071 33.0981 9.781C31.2143 9.30377 27.3462 9.10283 25.6131 9.37912ZM32.3948 12.3179C36.9662 13.3979 40.8846 16.5376 42.894 20.7323C44.3006 23.6208 44.6773 25.5046 44.5266 28.5689C44.2252 34.1702 41.0102 39.043 35.9113 41.5547C33.2739 42.8608 31.1641 43.3883 28.376 43.3883C22.172 43.3883 16.5456 39.9974 13.9585 34.7479C12.4766 31.7337 12.0998 29.9253 12.2254 26.8609C12.7027 16.7888 22.2473 9.90659 32.3948 12.3179Z" fill="#E1E0E3"/>
<path d="M24.8095 14.277C21.3935 15.1058 17.7263 17.8939 15.9932 20.9834C10.8943 30.0006 17.651 41.3035 28.1501 41.3035C30.8377 41.3035 32.4703 40.9518 34.6556 39.922C37.8706 38.3898 40.4828 35.5013 41.7889 32.01C42.6681 29.6992 42.6932 25.831 41.8643 23.4198C40.3572 19.0995 36.9412 15.8343 32.4201 14.4528C30.4358 13.85 26.9445 13.7746 24.8095 14.277ZM31.3903 16.8138C33.5001 17.3664 35.0825 18.3209 36.665 19.9787C38.6744 22.0885 39.6288 24.2486 39.7544 27.0116C39.9302 30.6285 38.9507 33.09 36.3384 35.5767C33.3746 38.3898 29.3306 39.4448 25.3621 38.4149C23.2522 37.8624 21.6698 36.9079 20.0874 35.2501C16.7467 31.7588 15.9932 26.8609 18.1031 22.5909C19.4092 20.0038 22.7498 17.3915 25.6383 16.7134C27.1705 16.3617 29.7576 16.412 31.3903 16.8138Z" fill="#E1E0E3"/>
<path d="M26.1653 18.6979C21.6693 19.8282 18.63 24.0228 19.057 28.4686C19.685 35.3257 27.7979 39.018 33.6754 35.1248C39.6032 31.1813 38.8999 22.4655 32.3944 19.4263C30.6111 18.5723 27.8984 18.2709 26.1653 18.6979ZM31.0883 21.5864C33.4494 22.566 35.0318 24.9773 35.0318 27.6146C35.0318 31.3822 32.1433 34.1703 28.2501 34.1201C26.3914 34.0698 25.1606 33.6177 23.8294 32.4623C21.2171 30.1515 21.0162 25.6806 23.4275 23.1437C25.2862 21.1845 28.5515 20.5315 31.0883 21.5864Z" fill="#E1E0E3"/>
<path d="M61.4055 31.131V39.2942H62.4102H63.4149V31.131V22.9678H62.4102H61.4055V31.131Z" fill="#E1E0E3"/>
<path d="M65.6753 23.7213V24.4497L67.8856 24.5251L70.0709 24.6004L70.1462 31.9347L70.1965 39.2942H71.2012H72.2059V31.8845V24.4748H74.4664H76.727V23.7213V22.9678H71.2012H65.6753V23.7213Z" fill="#E1E0E3"/>
<path d="M81.0475 26.6601C80.8717 26.7354 80.5703 27.1122 80.3693 27.5141C79.8921 28.4183 79.5404 28.4434 79.44 27.5392C79.3897 27.0117 79.2139 26.8359 78.6864 26.7856L77.9832 26.7103V32.9897V39.2942H78.8372H79.6911L79.7916 34.6977C79.8921 29.3728 80.0428 28.8704 81.7508 28.5941C82.7304 28.4434 82.7555 28.3932 82.7555 27.4638C82.7555 26.5596 82.7053 26.4842 82.0773 26.5093C81.6754 26.5093 81.2233 26.5847 81.0475 26.6601Z" fill="#E1E0E3"/>
<path d="M86.8996 26.7857C85.0157 27.8155 84.2622 29.5988 84.2622 32.9395C84.2622 35.6773 84.639 37.109 85.6186 38.1639C86.9749 39.5956 89.562 39.9222 91.0439 38.8421C92.0235 38.1137 92.8022 36.7825 92.8022 35.8531C92.8022 35.0242 92.7519 34.9991 91.9984 35.0745C91.2951 35.1498 91.1695 35.2754 91.0188 36.0038C90.7677 37.2597 89.989 37.9127 88.7834 37.8876C87.2261 37.8374 86.4726 36.9332 86.146 34.6977L85.9702 33.5172H89.3862H92.8022V31.558C92.7771 28.0667 91.5212 26.4843 88.7834 26.4843C88.0298 26.4843 87.1758 26.635 86.8996 26.7857ZM89.8383 28.2676C90.4411 28.5941 91.0439 29.9505 91.0439 31.0054V31.7589H88.5322H86.0204L86.1711 31.0557C86.2465 30.6789 86.4223 30.0007 86.573 29.5486C86.9498 28.2676 88.6075 27.6145 89.8383 28.2676Z" fill="#E1E0E3"/>
<path d="M96.8968 26.9866C95.867 27.6145 95.3144 28.6946 95.3144 30.1011C95.3144 31.6333 96.1684 32.5627 98.429 33.492C100.589 34.346 101.217 35.0995 100.991 36.4057C100.84 37.1592 100.639 37.3852 99.936 37.6866C98.5546 38.2644 97.2485 37.6364 96.947 36.2549C96.7963 35.627 96.6708 35.5265 95.9172 35.5265C95.1135 35.5265 95.0632 35.5768 95.0632 36.4057C95.0632 38.2895 97.374 39.7714 99.7351 39.4198C101.719 39.1435 102.85 37.7118 102.85 35.5517C102.85 33.8185 101.92 32.7636 99.6849 31.985C97.7257 31.2817 96.9722 30.503 97.1731 29.3727C97.374 28.4434 97.9266 27.9913 98.9565 27.9913C99.8607 27.9913 100.464 28.5439 100.715 29.5486C100.865 30.1514 101.016 30.2519 101.745 30.2519C102.498 30.2519 102.599 30.1765 102.599 29.5486C102.573 27.1122 99.2076 25.58 96.8968 26.9866Z" fill="#E1E0E3"/>
<path d="M59.6472 40.8011C59.6472 41.3035 59.823 41.3035 97.3236 41.3035C134.824 41.3035 135 41.3035 135 40.8011C135 40.2988 134.824 40.2988 97.3236 40.2988C59.823 40.2988 59.6472 40.2988 59.6472 40.8011Z" fill="#E1E0E3"/>
</svg>
