<svg width="55" height="55" viewBox="0 0 55 55" fill="none" xmlns="http://www.w3.org/2000/svg">
<path d="M27.9167 5C15.4935 5 5 15.4935 5 27.9167C5 40.3398 15.4935 50.8333 27.9167 50.8333C40.3398 50.8333 50.8333 40.3398 50.8333 27.9167C50.8333 15.4935 40.3398 5 27.9167 5ZM27.9167 16.4583C31.8744 16.4583 34.7917 19.3733 34.7917 23.3333C34.7917 27.2933 31.8744 30.2083 27.9167 30.2083C23.9613 30.2083 21.0417 27.2933 21.0417 23.3333C21.0417 19.3733 23.9613 16.4583 27.9167 16.4583ZM16.2154 38.8525C18.271 35.8275 21.6994 33.8108 25.625 33.8108H30.2083C34.1363 33.8108 37.5623 35.8275 39.6179 38.8525C36.6892 41.9875 32.5344 43.9583 27.9167 43.9583C23.299 43.9583 19.1442 41.9875 16.2154 38.8525Z" fill="#E1E0E3"/>
</svg>
